<?xml version="1.0" ?><svg viewBox="0 0 512 512" xmlns="http://www.w3.org/2000/svg"><defs><style>.d{fill:#040000;}.e{fill:none;stroke:#000;stroke-linecap:round;stroke-linejoin:round;stroke-width:14px;}</style></defs><g id="a"/><g id="b"><g><path class="e" d="M101.344,383.179l19.044-56.286c-14.483-20.683-22.821-44.946-22.821-70.893,0-75.683,70.932-137.036,158.432-137.036s158.432,61.353,158.432,137.036-70.932,137.036-158.432,137.036c-36.724,0-70.53-10.808-97.398-28.946l-57.257,19.089Z"/><path class="d" d="M257.668,268.014c6.628,0,12.003-5.368,12.003-11.996s-5.375-11.99-12.003-11.99-11.989,5.361-11.989,11.99,5.367,11.996,11.989,11.996Z"/><path class="d" d="M192.942,268.014c6.628,0,12.003-5.368,12.003-11.996s-5.375-11.99-12.003-11.99-11.989,5.361-11.989,11.99,5.367,11.996,11.989,11.996Z"/><path class="d" d="M322.394,268.014c6.628,0,12.003-5.368,12.003-11.996s-5.375-11.99-12.003-11.99-11.989,5.361-11.989,11.99,5.367,11.996,11.989,11.996Z"/></g></g><g id="c"/></svg>